{"title":"Ghost TV 2013 zombiRG","uid":11009446,"size":1100889654,"categoryP":"video","categoryS":"movies","magnet":"?xt=urn:btih:8469b1d99aaa68a247c97a6f094f11a861cb513c&amp;dn=Ghost+TV+2013+zombiRG&amp;tr=udp%3A%2F%2Ftracker.openbittorrent.com%3A80&amp;tr=udp%3A%2F%2Fopen.demonii.com%3A1337&amp;tr=udp%3A%2F%2Ftracker.coppersurfer.tk%3A6969&amp;tr=udp%3A%2F%2Fexodus.desync.com%3A6969","seeders":1,"leechers":0,"uploader":"horrorhound","files":-1,"time":1410320875,"description":"Ghost TV 2013\nimages:\nThumbs: &lt;a href=&quot;\nhttp://image.bayimg.com/3ec199511d4ecf9c785e7d1fd8a41d547567d304.jpg&quot; rel=&quot;nofollow&quot; target=&quot;_NEW&quot;&gt;\nhttp://image.bayimg.com/3ec199511d4ecf9c785e7d1fd8a41d547567d304.jpg&lt;/a&gt;\nFull Screens: &lt;a href=&quot;\nhttp://image.bayimg.com/8d1da6f390a37edfc42f64ad501a6286925dd69f.jpg&quot; rel=&quot;nofollow&quot; target=&quot;_NEW&quot;&gt;\nhttp://image.bayimg.com/8d1da6f390a37edfc42f64ad501a6286925dd69f.jpg&lt;/a&gt; &lt;a href=&quot;\nhttp://image.bayimg.com/9d1f4ad7181b0c89e1b8aabf70443c74e20369b5.jpg&quot; rel=&quot;nofollow&quot; target=&quot;_NEW&quot;&gt;\nhttp://image.bayimg.com/9d1f4ad7181b0c89e1b8aabf70443c74e20369b5.jpg&lt;/a&gt;\n\n\n\n\n\nA nasty, nasty comedy. A reality TV crew is making a programme, 'Ghost TV' about the haunted buildings that are the ruins of Seacliff Lunatic Asylum. As one might expect things do not go to plan. One of the crew is not very emotionally stable and when she discovers that she has been used callously by another crew member she snaps and runs off into the night, only to return with violent intent.\n\n\n\nVideo\nID                                       : 0\nFormat                                   : xvid\nCodec ID                                 : xvid\nDuration                                 : 1h 30mn\nBit rate                                 : 1 477 Kbps\nWidth                                    : 704 pixels\nHeight                                   : 396 pixels\nDisplay aspect ratio                     : 16:9\nFrame rate                               : 25.000 fps\nBits/(Pixel*Frame)                       : 0.212\nStream size                              : 956 MiB (91%)\n\nAudio\nID                                       : 1\nFormat                                   : MPEG Audio\nFormat version                           : Version 1\nFormat profile                           : Layer 3\nMode                                     : Joint stereo\nCodec ID                                 : 55\nCodec ID/Hint                            : MP3\nDuration                                 : 1h 30mn\nBit rate mode                            : Constant\nBit rate                                 : 128 Kbps\nChannel(s)                               : 2 channels\nSampling rate                            : 44.1 KHz\nCompression mode                         : Lossy\nStream size                              : 82.9 MiB (8%)\nAlignment                                : Aligned on interleaves\nInterleave, duration                     : 26 ms (0.65 video frame)\nInterleave, preload duration             : 26 ms\nWriting library                          : LAME3.98.4","torrent":{"xt":"urn:btih:8469b1d99aaa68a247c97a6f094f11a861cb513c","amp;dn":"Ghost+TV+2013+zombiRG","amp;tr":["udp%3A%2F%2Ftracker.openbittorrent.com%3A80","udp%3A%2F%2Fopen.demonii.com%3A1337","udp%3A%2F%2Ftracker.coppersurfer.tk%3A6969","udp%3A%2F%2Fexodus.desync.com%3A6969"],"infoHash":"8469b1d99aaa68a247c97a6f094f11a861cb513c","infoHashBuffer":{"type":"Buffer","data":[132,105,177,217,154,170,104,162,71,201,122,111,9,79,17,168,97,203,81,60]},"announce":[],"urlList":[]}}